# xmcd
#
# Track frame offsets: 
#        150
#        15157
#        29092
#        40490
#        58805
#        77445
#        89470
#        105302
#        121632
#        135992
#        148477
#        163270
#        182665
#        199332
#
# Disc length: 2869 seconds
#
# Revision: 7
# Processed by: cddbd v1.5.2PL0 Copyright (c) Steve Scherf et al.
# Submitted via: ExactAudioCopyFreeDBPlugin 1.0
#
DISCID=bb0b330e
DTITLE=Various Artist - 80's Chart Toppin' Country
DYEAR=1998
DGENRE=country
TTITLE0=Alabama - Love In The First Degree
TTITLE1=Clint Black - Better Man
TTITLE2=Willie Nelson - On The Road Again
TTITLE3=Steve Wariner - You Can Dream Of Me
TTITLE4=Don Williams - I Believe In You
TTITLE5=Oak Ridge Boys - Elvira
TTITLE6=The Judds - Why Not Me
TTITLE7=Johnny Lee - Lookin' For Love
TTITLE8=Eddie Rabbitt - I Love A Rainey Night
TTITLE9=Dolly Parton - 9 To 5
TTITLE10=Ronnie Milsap - (There's) No Gettin' Over Me
TTITLE11=Restless Heart - I'll Still Be Loving You
TTITLE12=Keith Whitley - When You Say Nothing At All
TTITLE13=Randy Travis - Forever and Ever, Amen
EXTD=
EXTT0=
EXTT1=
EXTT2=
EXTT3=
EXTT4=
EXTT5=
EXTT6=
EXTT7=
EXTT8=
EXTT9=
EXTT10=
EXTT11=
EXTT12=
EXTT13=
PLAYORDER=
